<?xml version="1.0" encoding="UTF-8" standalone="no"?>
<!DOCTYPE svg PUBLIC "-//W3C//DTD SVG 1.1//EN"
 "http://www.w3.org/Graphics/SVG/1.1/DTD/svg11.dtd">
<!-- Generated by graphviz version 2.40.1 (20161225.0304)
 -->
<!-- Title: dependencies Pages: 1 -->
<svg width="932pt" height="284pt"
 viewBox="0.00 0.00 932.00 284.00" xmlns="http://www.w3.org/2000/svg" xmlns:xlink="http://www.w3.org/1999/xlink">
<g id="graph0" class="graph" transform="scale(1 1) rotate(0) translate(4 280)">
<title>dependencies</title>
<polygon fill="#ffffff" stroke="transparent" points="-4,4 -4,-280 928,-280 928,4 -4,4"/>
<text text-anchor="start" x="441.0091" y="-42.4" font-family="sans-serif" font-weight="bold" font-size="14.00" fill="#000000">Legend</text>
<polygon fill="#ffffb3" stroke="transparent" points="228,-10 228,-30 248,-30 248,-10 228,-10"/>
<text text-anchor="start" x="251.629" y="-15.4" font-family="sans-serif" font-size="14.00" fill="#000000"> &#160;Declarations</text>
<polygon fill="#8dd3c7" stroke="transparent" points="341,-10 341,-30 361,-30 361,-10 341,-10"/>
<text text-anchor="start" x="364.7251" y="-15.4" font-family="sans-serif" font-size="14.00" fill="#000000"> &#160;Module</text>
<polygon fill="#80b1d3" stroke="transparent" points="427,-10 427,-30 447,-30 447,-10 427,-10"/>
<text text-anchor="start" x="450.7812" y="-15.4" font-family="sans-serif" font-size="14.00" fill="#000000"> &#160;Bootstrap</text>
<polygon fill="#fdb462" stroke="transparent" points="524,-10 524,-30 544,-30 544,-10 524,-10"/>
<text text-anchor="start" x="547.6732" y="-15.4" font-family="sans-serif" font-size="14.00" fill="#000000"> &#160;Providers</text>
<polygon fill="#fb8072" stroke="transparent" points="620,-10 620,-30 640,-30 640,-10 620,-10"/>
<text text-anchor="start" x="643.7258" y="-15.4" font-family="sans-serif" font-size="14.00" fill="#000000"> &#160;Exports</text>
<g id="clust1" class="cluster">
<title>cluster_AppModule</title>
<polygon fill="none" stroke="#000000" stroke-dasharray="1,5" points="8,-70 8,-268 916,-268 916,-70 8,-70"/>
</g>
<g id="clust2" class="cluster">
<title>cluster_AppModule_declarations</title>
<polygon fill="none" stroke="#000000" points="326,-78 326,-130 908,-130 908,-78 326,-78"/>
</g>
<g id="clust7" class="cluster">
<title>cluster_AppModule_imports</title>
<polygon fill="none" stroke="#000000" points="174,-78 174,-130 318,-130 318,-78 174,-78"/>
</g>
<g id="clust9" class="cluster">
<title>cluster_AppModule_bootstrap</title>
<polygon fill="none" stroke="#000000" points="427,-208 427,-260 551,-260 551,-208 427,-208"/>
</g>
<g id="clust10" class="cluster">
<title>cluster_AppModule_providers</title>
<polygon fill="none" stroke="#000000" points="16,-78 16,-130 166,-130 166,-78 16,-78"/>
</g>
<!-- AppComponent -->
<g id="node1" class="node">
<title>AppComponent</title>
<polygon fill="#ffffb3" stroke="#000000" points="899.9399,-122 794.0601,-122 794.0601,-86 899.9399,-86 899.9399,-122"/>
<text text-anchor="middle" x="847" y="-99.8" font-family="Times,serif" font-size="14.00" fill="#000000">AppComponent</text>
</g>
<!-- AppModule -->
<g id="node5" class="node">
<title>AppModule</title>
<polygon fill="#8dd3c7" stroke="#000000" points="530.6571,-187 527.6571,-191 506.6571,-191 503.6571,-187 447.3429,-187 447.3429,-151 530.6571,-151 530.6571,-187"/>
<text text-anchor="middle" x="489" y="-164.8" font-family="Times,serif" font-size="14.00" fill="#000000">AppModule</text>
</g>
<!-- AppComponent&#45;&gt;AppModule -->
<g id="edge1" class="edge">
<title>AppComponent&#45;&gt;AppModule</title>
<path fill="none" stroke="#000000" d="M847,-122.2843C847,-143.3211 847,-175 847,-175 847,-175 540.7678,-175 540.7678,-175"/>
<polygon fill="#000000" stroke="#000000" points="540.7678,-171.5001 530.7678,-175 540.7678,-178.5001 540.7678,-171.5001"/>
</g>
<!-- SurveyComponent -->
<g id="node2" class="node">
<title>SurveyComponent</title>
<polygon fill="#ffffb3" stroke="#000000" points="776.4902,-122 655.5098,-122 655.5098,-86 776.4902,-86 776.4902,-122"/>
<text text-anchor="middle" x="716" y="-99.8" font-family="Times,serif" font-size="14.00" fill="#000000">SurveyComponent</text>
</g>
<!-- SurveyComponent&#45;&gt;AppModule -->
<g id="edge2" class="edge">
<title>SurveyComponent&#45;&gt;AppModule</title>
<path fill="none" stroke="#000000" d="M716,-122.0225C716,-139.3734 716,-163 716,-163 716,-163 540.8998,-163 540.8998,-163"/>
<polygon fill="#000000" stroke="#000000" points="540.8999,-159.5001 530.8998,-163 540.8998,-166.5001 540.8999,-159.5001"/>
</g>
<!-- SummaryComponent -->
<g id="node3" class="node">
<title>SummaryComponent</title>
<polygon fill="#ffffb3" stroke="#000000" points="637.7716,-122 502.2284,-122 502.2284,-86 637.7716,-86 637.7716,-122"/>
<text text-anchor="middle" x="570" y="-99.8" font-family="Times,serif" font-size="14.00" fill="#000000">SummaryComponent</text>
</g>
<!-- SummaryComponent&#45;&gt;AppModule -->
<g id="edge3" class="edge">
<title>SummaryComponent&#45;&gt;AppModule</title>
<path fill="none" stroke="#000000" d="M516.4712,-122.1061C516.4712,-122.1061 516.4712,-140.991 516.4712,-140.991"/>
<polygon fill="#000000" stroke="#000000" points="512.9713,-140.9909 516.4712,-150.991 519.9713,-140.991 512.9713,-140.9909"/>
</g>
<!-- ProgressBarComponent -->
<g id="node4" class="node">
<title>ProgressBarComponent</title>
<polygon fill="#ffffb3" stroke="#000000" points="483.752,-122 334.248,-122 334.248,-86 483.752,-86 483.752,-122"/>
<text text-anchor="middle" x="409" y="-99.8" font-family="Times,serif" font-size="14.00" fill="#000000">ProgressBarComponent</text>
</g>
<!-- ProgressBarComponent&#45;&gt;AppModule -->
<g id="edge4" class="edge">
<title>ProgressBarComponent&#45;&gt;AppModule</title>
<path fill="none" stroke="#000000" d="M465.5239,-122.1061C465.5239,-122.1061 465.5239,-140.991 465.5239,-140.991"/>
<polygon fill="#000000" stroke="#000000" points="462.0239,-140.9909 465.5239,-150.991 469.0239,-140.991 462.0239,-140.9909"/>
</g>
<!-- AppComponent  -->
<g id="node7" class="node">
<title>AppComponent </title>
<polygon fill="#80b1d3" stroke="#000000" points="543.439,-252 434.561,-252 434.561,-216 543.439,-216 543.439,-252"/>
<text text-anchor="middle" x="489" y="-229.8" font-family="Times,serif" font-size="14.00" fill="#000000">AppComponent </text>
</g>
<!-- AppModule&#45;&gt;AppComponent  -->
<g id="edge6" class="edge">
<title>AppModule&#45;&gt;AppComponent </title>
<path fill="none" stroke="#000000" stroke-dasharray="1,5" d="M489,-187.1061C489,-187.1061 489,-205.991 489,-205.991"/>
<polygon fill="#000000" stroke="#000000" points="485.5001,-205.9909 489,-215.991 492.5001,-205.991 485.5001,-205.9909"/>
</g>
<!-- AppRoutingModule -->
<g id="node6" class="node">
<title>AppRoutingModule</title>
<polygon fill="#8dd3c7" stroke="#000000" points="310.2744,-122 307.2744,-126 286.2744,-126 283.2744,-122 181.7256,-122 181.7256,-86 310.2744,-86 310.2744,-122"/>
<text text-anchor="middle" x="246" y="-99.8" font-family="Times,serif" font-size="14.00" fill="#000000">AppRoutingModule</text>
</g>
<!-- AppRoutingModule&#45;&gt;AppModule -->
<g id="edge5" class="edge">
<title>AppRoutingModule&#45;&gt;AppModule</title>
<path fill="none" stroke="#000000" d="M246,-122.0225C246,-139.3734 246,-163 246,-163 246,-163 437.2268,-163 437.2268,-163"/>
<polygon fill="#000000" stroke="#000000" points="437.2268,-166.5001 447.2268,-163 437.2268,-159.5001 437.2268,-166.5001"/>
</g>
<!-- SurveyService -->
<g id="node8" class="node">
<title>SurveyService</title>
<ellipse fill="#fdb462" stroke="#000000" cx="91" cy="-104" rx="67.1946" ry="18"/>
<text text-anchor="middle" x="91" y="-99.8" font-family="Times,serif" font-size="14.00" fill="#000000">SurveyService</text>
</g>
<!-- SurveyService&#45;&gt;AppModule -->
<g id="edge7" class="edge">
<title>SurveyService&#45;&gt;AppModule</title>
<path fill="none" stroke="#000000" d="M91,-122.2843C91,-143.3211 91,-175 91,-175 91,-175 437.1593,-175 437.1593,-175"/>
<polygon fill="#000000" stroke="#000000" points="437.1593,-178.5001 447.1593,-175 437.1592,-171.5001 437.1593,-178.5001"/>
</g>
</g>
</svg>
